<svg xmlns="http://www.w3.org/2000/svg" xmlns:xlink="http://www.w3.org/1999/xlink" viewBox="0,0,256,256" width="80px" height="80px"><g fill="#ffffff" fill-rule="nonzero" stroke="none" stroke-width="1" stroke-linecap="butt" stroke-linejoin="miter" stroke-miterlimit="10" stroke-dasharray="" stroke-dashoffset="0" font-family="none" font-weight="none" font-size="none" text-anchor="none" style="mix-blend-mode: normal"><g transform="scale(5.12,5.12)"><path d="M0.99023,-0.00977c-0.40692,0.00011 -0.77321,0.24676 -0.92633,0.62377c-0.15312,0.37701 -0.06255,0.80921 0.22907,1.09303l48,48c0.25082,0.26124 0.62327,0.36648 0.97371,0.27512c0.35044,-0.09136 0.62411,-0.36503 0.71547,-0.71547c0.09136,-0.35044 -0.01388,-0.72289 -0.27512,-0.97371l-3.29297,-3.29297h0.58594c0.55,0 1,-0.45 1,-1v-28c0,-0.55 -0.45,-1 -1,-1h-2v2h1v26h-1.58594l-3,-3h0.58594c0.55,0 1,-0.45 1,-1v-28c0,-0.55 -0.45,-1 -1,-1h-2v2h1v26h-1.58594l-3,-3h0.58594c0.55,0 1,-0.45 1,-1v-28c0,-0.55 -0.45,-1 -1,-1h-30.58594l-4.70703,-4.70703c-0.18827,-0.19353 -0.4468,-0.30272 -0.7168,-0.30273zM2,6.24023v27.75977c0,0.55 0.45,1 1,1h27.75977l-9.07227,-9.07227l-0.7793,0.7793c-0.195,0.195 -0.45103,0.29297 -0.70703,0.29297c-0.256,0 -0.51203,-0.09797 -0.70703,-0.29297c-0.391,-0.391 -0.391,-1.02306 0,-1.41406l0.7793,-0.7793l-10.25391,-10.25391l-6.01953,5.48047v-11.5zM8.41406,7h27.58594v16.58984l-5.28906,-5.30078c-0.38,-0.37 -0.98109,-0.3793 -1.37109,-0.0293l-4.82617,4.83984l-1.41797,-1.41797l0.99414,-1.00195l-9.37891,-9.39063c-0.38,-0.38 -0.99086,-0.3893 -1.38086,-0.0293l-0.3418,0.31445zM30,10c-1.105,0 -2,0.895 -2,2c0,1.105 0.895,2 2,2c1.105,0 2,-0.895 2,-2c0,-1.105 -0.895,-2 -2,-2zM7,37v2c0,0.55 0.45,1 1,1h27.75977l-2,-2h-24.75977v-1zM12,42v2c0,0.55 0.45,1 1,1h27.75977l-2,-2h-24.75977v-1z"></path></g></g></svg>