<svg xmlns="http://www.w3.org/2000/svg" xmlns:xlink="http://www.w3.org/1999/xlink" viewBox="0,0,256,256" width="30px" height="30px"><g fill="#ffffff" fill-rule="nonzero" stroke="none" stroke-width="1" stroke-linecap="butt" stroke-linejoin="miter" stroke-miterlimit="10" stroke-dasharray="" stroke-dashoffset="0" font-family="none" font-weight="none" font-size="none" text-anchor="none" style="mix-blend-mode: normal"><g transform="scale(8,8)"><path d="M16,2.58594l-4.70703,4.70703l1.41406,1.41406l2.29297,-2.29297v14.58594h2v-14.58594l2.29297,2.29297l1.41406,-1.41406zM9,11c-1.64497,0 -3,1.35503 -3,3v12c0,1.64497 1.35503,3 3,3h14c1.64497,0 3,-1.35503 3,-3v-12c0,-1.64497 -1.35503,-3 -3,-3h-3v2h3c0.56503,0 1,0.43497 1,1v12c0,0.56503 -0.43497,1 -1,1h-14c-0.56503,0 -1,-0.43497 -1,-1v-12c0,-0.56503 0.43497,-1 1,-1h3v-2z"></path></g></g></svg>