<svg xmlns="http://www.w3.org/2000/svg" xmlns:xlink="http://www.w3.org/1999/xlink" viewBox="0,0,256,256" width="35px" height="35px"><g fill="none" fill-rule="nonzero" stroke="none" stroke-width="none" stroke-linecap="none" stroke-linejoin="none" stroke-miterlimit="10" stroke-dasharray="" stroke-dashoffset="0" font-family="none" font-weight="none" font-size="none" text-anchor="none" style="mix-blend-mode: normal"><g transform="scale(5.33333,5.33333)"><path d="M44.5,15.5v15c0,5.5 -4.5,10 -10,10h-18.7" fill="none" stroke="#707070" stroke-width="3" stroke-linecap="round" stroke-linejoin="round"></path><path d="M24.6,35.5h-15.1c-3.3,0 -6,-2.7 -6,-6v-16c0,-3.3 2.7,-6 6,-6h2.3" fill="none" stroke="#707070" stroke-width="3" stroke-linecap="round" stroke-linejoin="round"></path><path d="M17.3,7.5h16.2c3.3,0 6,2.7 6,6v16c0,3.3 -2.7,6 -6,6h-2.5" fill="none" stroke="#707070" stroke-width="3" stroke-linecap="round" stroke-linejoin="round"></path><circle cx="30.5" cy="15.5" r="2.5" fill="#707070" stroke="none" stroke-width="1" stroke-linecap="butt" stroke-linejoin="miter"></circle><path d="M16.6,31.7l8.8,-8.6c0.9,-0.9 2.3,-0.9 3.2,0l4.3,4.2" fill="none" stroke="#707070" stroke-width="3" stroke-linecap="round" stroke-linejoin="round"></path><path d="M8,24.9l4.9,-4.7c0.9,-0.9 2.3,-0.9 3.2,0l6.2,6" fill="none" stroke="#707070" stroke-width="3" stroke-linecap="round" stroke-linejoin="round"></path></g></g></svg>